<svg width="150" height="25" viewBox="0 0 150 25" fill="none" xmlns="http://www.w3.org/2000/svg">
<rect x="0.5" y="0.5" width="149" height="24" rx="4.5" stroke="#D86B79"/>
<path d="M16.188 17V8.6H23.616V17H22.08V9.536L22.44 9.92H17.364L17.724 9.536V17H16.188ZM28.8046 17.084C28.0926 17.084 27.4686 16.944 26.9326 16.664C26.4046 16.376 25.9926 15.984 25.6966 15.488C25.4086 14.992 25.2646 14.428 25.2646 13.796C25.2646 13.156 25.4046 12.592 25.6846 12.104C25.9726 11.608 26.3646 11.22 26.8606 10.94C27.3646 10.66 27.9366 10.52 28.5766 10.52C29.2006 10.52 29.7566 10.656 30.2446 10.928C30.7326 11.2 31.1166 11.584 31.3966 12.08C31.6766 12.576 31.8166 13.16 31.8166 13.832C31.8166 13.896 31.8126 13.968 31.8046 14.048C31.8046 14.128 31.8006 14.204 31.7926 14.276H26.4526V13.28H31.0006L30.4126 13.592C30.4206 13.224 30.3446 12.9 30.1846 12.62C30.0246 12.34 29.8046 12.12 29.5246 11.96C29.2526 11.8 28.9366 11.72 28.5766 11.72C28.2086 11.72 27.8846 11.8 27.6046 11.96C27.3326 12.12 27.1166 12.344 26.9566 12.632C26.8046 12.912 26.7286 13.244 26.7286 13.628V13.868C26.7286 14.252 26.8166 14.592 26.9926 14.888C27.1686 15.184 27.4166 15.412 27.7366 15.572C28.0566 15.732 28.4246 15.812 28.8406 15.812C29.2006 15.812 29.5246 15.756 29.8126 15.644C30.1006 15.532 30.3566 15.356 30.5806 15.116L31.3846 16.04C31.0966 16.376 30.7326 16.636 30.2926 16.82C29.8606 16.996 29.3646 17.084 28.8046 17.084ZM37.0092 17.084C36.4892 17.084 36.0132 16.964 35.5812 16.724C35.1572 16.484 34.8172 16.124 34.5612 15.644C34.3132 15.156 34.1892 14.54 34.1892 13.796C34.1892 13.044 34.3092 12.428 34.5492 11.948C34.7972 11.468 35.1332 11.112 35.5572 10.88C35.9812 10.64 36.4652 10.52 37.0092 10.52C37.6412 10.52 38.1972 10.656 38.6772 10.928C39.1652 11.2 39.5492 11.58 39.8292 12.068C40.1172 12.556 40.2612 13.132 40.2612 13.796C40.2612 14.46 40.1172 15.04 39.8292 15.536C39.5492 16.024 39.1652 16.404 38.6772 16.676C38.1972 16.948 37.6412 17.084 37.0092 17.084ZM33.4572 19.328V10.592H34.8852V12.104L34.8372 13.808L34.9572 15.512V19.328H33.4572ZM36.8412 15.8C37.2012 15.8 37.5212 15.72 37.8012 15.56C38.0892 15.4 38.3172 15.168 38.4852 14.864C38.6532 14.56 38.7372 14.204 38.7372 13.796C38.7372 13.38 38.6532 13.024 38.4852 12.728C38.3172 12.424 38.0892 12.192 37.8012 12.032C37.5212 11.872 37.2012 11.792 36.8412 11.792C36.4812 11.792 36.1572 11.872 35.8692 12.032C35.5812 12.192 35.3532 12.424 35.1852 12.728C35.0172 13.024 34.9332 13.38 34.9332 13.796C34.9332 14.204 35.0172 14.56 35.1852 14.864C35.3532 15.168 35.5812 15.4 35.8692 15.56C36.1572 15.72 36.4812 15.8 36.8412 15.8ZM41.7541 17V10.592H44.8861C45.6621 10.592 46.2701 10.736 46.7101 11.024C47.1581 11.312 47.3821 11.72 47.3821 12.248C47.3821 12.768 47.1741 13.176 46.7581 13.472C46.3421 13.76 45.7901 13.904 45.1021 13.904L45.2821 13.532C46.0581 13.532 46.6341 13.676 47.0101 13.964C47.3941 14.244 47.5861 14.656 47.5861 15.2C47.5861 15.768 47.3741 16.212 46.9501 16.532C46.5261 16.844 45.8821 17 45.0181 17H41.7541ZM43.1821 15.908H44.8981C45.3061 15.908 45.6141 15.844 45.8221 15.716C46.0301 15.58 46.1341 15.376 46.1341 15.104C46.1341 14.816 46.0381 14.604 45.8461 14.468C45.6541 14.332 45.3541 14.264 44.9461 14.264H43.1821V15.908ZM43.1821 13.268H44.7541C45.1381 13.268 45.4261 13.2 45.6181 13.064C45.8181 12.92 45.9181 12.72 45.9181 12.464C45.9181 12.2 45.8181 12.004 45.6181 11.876C45.4261 11.748 45.1381 11.684 44.7541 11.684H43.1821V13.268ZM52.0398 17.084C51.3838 17.084 50.7998 16.944 50.2878 16.664C49.7758 16.376 49.3718 15.984 49.0758 15.488C48.7798 14.992 48.6318 14.428 48.6318 13.796C48.6318 13.156 48.7798 12.592 49.0758 12.104C49.3718 11.608 49.7758 11.22 50.2878 10.94C50.7998 10.66 51.3838 10.52 52.0398 10.52C52.7038 10.52 53.2918 10.66 53.8038 10.94C54.3238 11.22 54.7278 11.604 55.0158 12.092C55.3118 12.58 55.4598 13.148 55.4598 13.796C55.4598 14.428 55.3118 14.992 55.0158 15.488C54.7278 15.984 54.3238 16.376 53.8038 16.664C53.2918 16.944 52.7038 17.084 52.0398 17.084ZM52.0398 15.8C52.4078 15.8 52.7358 15.72 53.0238 15.56C53.3118 15.4 53.5358 15.168 53.6958 14.864C53.8638 14.56 53.9478 14.204 53.9478 13.796C53.9478 13.38 53.8638 13.024 53.6958 12.728C53.5358 12.424 53.3118 12.192 53.0238 12.032C52.7358 11.872 52.4118 11.792 52.0518 11.792C51.6838 11.792 51.3558 11.872 51.0678 12.032C50.7878 12.192 50.5638 12.424 50.3958 12.728C50.2278 13.024 50.1438 13.38 50.1438 13.796C50.1438 14.204 50.2278 14.56 50.3958 14.864C50.5638 15.168 50.7878 15.4 51.0678 15.56C51.3558 15.72 51.6798 15.8 52.0398 15.8ZM59.9296 17.084C59.2176 17.084 58.5936 16.944 58.0576 16.664C57.5296 16.376 57.1176 15.984 56.8216 15.488C56.5336 14.992 56.3896 14.428 56.3896 13.796C56.3896 13.156 56.5296 12.592 56.8096 12.104C57.0976 11.608 57.4896 11.22 57.9856 10.94C58.4896 10.66 59.0616 10.52 59.7016 10.52C60.3256 10.52 60.8816 10.656 61.3696 10.928C61.8576 11.2 62.2416 11.584 62.5216 12.08C62.8016 12.576 62.9416 13.16 62.9416 13.832C62.9416 13.896 62.9376 13.968 62.9296 14.048C62.9296 14.128 62.9256 14.204 62.9176 14.276H57.5776V13.28H62.1256L61.5376 13.592C61.5456 13.224 61.4696 12.9 61.3096 12.62C61.1496 12.34 60.9296 12.12 60.6496 11.96C60.3776 11.8 60.0616 11.72 59.7016 11.72C59.3336 11.72 59.0096 11.8 58.7296 11.96C58.4576 12.12 58.2416 12.344 58.0816 12.632C57.9296 12.912 57.8536 13.244 57.8536 13.628V13.868C57.8536 14.252 57.9416 14.592 58.1176 14.888C58.2936 15.184 58.5416 15.412 58.8616 15.572C59.1816 15.732 59.5496 15.812 59.9656 15.812C60.3256 15.812 60.6496 15.756 60.9376 15.644C61.2256 15.532 61.4816 15.356 61.7056 15.116L62.5096 16.04C62.2216 16.376 61.8576 16.636 61.4176 16.82C60.9856 16.996 60.4896 17.084 59.9296 17.084ZM70.9586 17.12C70.4306 17.12 69.9586 17.04 69.5426 16.88C69.1266 16.72 68.7666 16.476 68.4626 16.148C68.1666 15.812 67.9386 15.388 67.7786 14.876C67.6186 14.364 67.5386 13.756 67.5386 13.052C67.5386 12.54 67.5826 12.072 67.6706 11.648C67.7586 11.224 67.8906 10.844 68.0666 10.508C68.2426 10.164 68.4626 9.86 68.7266 9.596C68.9986 9.332 69.3146 9.112 69.6746 8.936C70.0346 8.76 70.4426 8.624 70.8986 8.528L73.8746 7.892L74.0906 9.236L71.3906 9.788C71.2386 9.82 71.0546 9.868 70.8386 9.932C70.6306 9.988 70.4146 10.076 70.1906 10.196C69.9746 10.308 69.7706 10.472 69.5786 10.688C69.3946 10.896 69.2426 11.168 69.1226 11.504C69.0106 11.832 68.9546 12.244 68.9546 12.74C68.9546 12.892 68.9586 13.008 68.9666 13.088C68.9826 13.16 68.9946 13.24 69.0026 13.328C69.0186 13.408 69.0266 13.528 69.0266 13.688L68.4626 13.1C68.6226 12.692 68.8426 12.344 69.1226 12.056C69.4106 11.76 69.7426 11.536 70.1186 11.384C70.5026 11.224 70.9186 11.144 71.3666 11.144C71.9666 11.144 72.4986 11.268 72.9626 11.516C73.4266 11.764 73.7906 12.112 74.0546 12.56C74.3186 13.008 74.4506 13.516 74.4506 14.084C74.4506 14.676 74.3066 15.2 74.0186 15.656C73.7306 16.112 73.3226 16.472 72.7946 16.736C72.2746 16.992 71.6626 17.12 70.9586 17.12ZM71.0786 15.908C71.4386 15.908 71.7546 15.832 72.0266 15.68C72.3066 15.52 72.5226 15.304 72.6746 15.032C72.8346 14.76 72.9146 14.456 72.9146 14.12C72.9146 13.784 72.8346 13.492 72.6746 13.244C72.5226 12.988 72.3066 12.784 72.0266 12.632C71.7546 12.48 71.4306 12.404 71.0546 12.404C70.6946 12.404 70.3706 12.476 70.0826 12.62C69.8026 12.764 69.5826 12.964 69.4226 13.22C69.2706 13.468 69.1946 13.756 69.1946 14.084C69.1946 14.42 69.2746 14.728 69.4346 15.008C69.5946 15.288 69.8146 15.508 70.0946 15.668C70.3826 15.828 70.7106 15.908 71.0786 15.908ZM78.8905 17.084C78.1785 17.084 77.5545 16.944 77.0185 16.664C76.4905 16.376 76.0785 15.984 75.7825 15.488C75.4945 14.992 75.3505 14.428 75.3505 13.796C75.3505 13.156 75.4905 12.592 75.7705 12.104C76.0585 11.608 76.4505 11.22 76.9465 10.94C77.4505 10.66 78.0225 10.52 78.6625 10.52C79.2865 10.52 79.8425 10.656 80.3305 10.928C80.8185 11.2 81.2025 11.584 81.4825 12.08C81.7625 12.576 81.9025 13.16 81.9025 13.832C81.9025 13.896 81.8985 13.968 81.8905 14.048C81.8905 14.128 81.8865 14.204 81.8785 14.276H76.5385V13.28H81.0865L80.4985 13.592C80.5065 13.224 80.4305 12.9 80.2705 12.62C80.1105 12.34 79.8905 12.12 79.6105 11.96C79.3385 11.8 79.0225 11.72 78.6625 11.72C78.2945 11.72 77.9705 11.8 77.6905 11.96C77.4185 12.12 77.2025 12.344 77.0425 12.632C76.8905 12.912 76.8145 13.244 76.8145 13.628V13.868C76.8145 14.252 76.9025 14.592 77.0785 14.888C77.2545 15.184 77.5025 15.412 77.8225 15.572C78.1425 15.732 78.5105 15.812 78.9265 15.812C79.2865 15.812 79.6105 15.756 79.8985 15.644C80.1865 15.532 80.4425 15.356 80.6665 15.116L81.4705 16.04C81.1825 16.376 80.8185 16.636 80.3785 16.82C79.9465 16.996 79.4505 17.084 78.8905 17.084ZM86.4592 17.084C85.7872 17.084 85.1872 16.944 84.6592 16.664C84.1392 16.376 83.7312 15.984 83.4352 15.488C83.1392 14.992 82.9912 14.428 82.9912 13.796C82.9912 13.156 83.1392 12.592 83.4352 12.104C83.7312 11.608 84.1392 11.22 84.6592 10.94C85.1872 10.66 85.7872 10.52 86.4592 10.52C87.0832 10.52 87.6312 10.648 88.1032 10.904C88.5832 11.152 88.9472 11.52 89.1952 12.008L88.0432 12.68C87.8512 12.376 87.6152 12.152 87.3352 12.008C87.0632 11.864 86.7672 11.792 86.4472 11.792C86.0792 11.792 85.7472 11.872 85.4512 12.032C85.1552 12.192 84.9232 12.424 84.7552 12.728C84.5872 13.024 84.5032 13.38 84.5032 13.796C84.5032 14.212 84.5872 14.572 84.7552 14.876C84.9232 15.172 85.1552 15.4 85.4512 15.56C85.7472 15.72 86.0792 15.8 86.4472 15.8C86.7672 15.8 87.0632 15.728 87.3352 15.584C87.6152 15.44 87.8512 15.216 88.0432 14.912L89.1952 15.584C88.9472 16.064 88.5832 16.436 88.1032 16.7C87.6312 16.956 87.0832 17.084 86.4592 17.084ZM90.5158 17V10.592H96.6598V17H95.1718V11.516L95.5198 11.864H91.6678L92.0158 11.516V17H90.5158ZM97.7478 16.988L97.8198 15.728C97.8758 15.736 97.9278 15.744 97.9758 15.752C98.0238 15.76 98.0678 15.764 98.1078 15.764C98.3558 15.764 98.5478 15.688 98.6838 15.536C98.8198 15.384 98.9198 15.18 98.9838 14.924C99.0558 14.66 99.1038 14.368 99.1278 14.048C99.1598 13.72 99.1838 13.392 99.1998 13.064L99.3078 10.592H104.492V17H102.992V11.456L103.34 11.864H100.292L100.616 11.444L100.532 13.136C100.508 13.704 100.46 14.232 100.388 14.72C100.324 15.2 100.22 15.62 100.076 15.98C99.9398 16.34 99.7478 16.62 99.4998 16.82C99.2598 17.02 98.9518 17.12 98.5758 17.12C98.4558 17.12 98.3238 17.108 98.1798 17.084C98.0438 17.06 97.8998 17.028 97.7478 16.988ZM110.4 17V15.704L110.316 15.428V13.16C110.316 12.72 110.184 12.38 109.92 12.14C109.656 11.892 109.256 11.768 108.72 11.768C108.36 11.768 108.004 11.824 107.652 11.936C107.308 12.048 107.016 12.204 106.776 12.404L106.188 11.312C106.532 11.048 106.94 10.852 107.412 10.724C107.892 10.588 108.388 10.52 108.9 10.52C109.828 10.52 110.544 10.744 111.048 11.192C111.56 11.632 111.816 12.316 111.816 13.244V17H110.4ZM108.384 17.084C107.904 17.084 107.484 17.004 107.124 16.844C106.764 16.676 106.484 16.448 106.284 16.16C106.092 15.864 105.996 15.532 105.996 15.164C105.996 14.804 106.08 14.48 106.248 14.192C106.424 13.904 106.708 13.676 107.1 13.508C107.492 13.34 108.012 13.256 108.66 13.256H110.52V14.252H108.768C108.256 14.252 107.912 14.336 107.736 14.504C107.56 14.664 107.472 14.864 107.472 15.104C107.472 15.376 107.58 15.592 107.796 15.752C108.012 15.912 108.312 15.992 108.696 15.992C109.064 15.992 109.392 15.908 109.68 15.74C109.976 15.572 110.188 15.324 110.316 14.996L110.568 15.896C110.424 16.272 110.164 16.564 109.788 16.772C109.42 16.98 108.952 17.084 108.384 17.084ZM115.004 17V11.504L115.352 11.864H112.748V10.592H118.748V11.864H116.156L116.504 11.504V17H115.004ZM119.836 17V10.592H121.336V13.196H124.564V10.592H126.064V17H124.564V14.468H121.336V17H119.836ZM130.93 17.084C130.274 17.084 129.69 16.944 129.178 16.664C128.666 16.376 128.262 15.984 127.966 15.488C127.67 14.992 127.522 14.428 127.522 13.796C127.522 13.156 127.67 12.592 127.966 12.104C128.262 11.608 128.666 11.22 129.178 10.94C129.69 10.66 130.274 10.52 130.93 10.52C131.594 10.52 132.182 10.66 132.694 10.94C133.214 11.22 133.618 11.604 133.906 12.092C134.202 12.58 134.35 13.148 134.35 13.796C134.35 14.428 134.202 14.992 133.906 15.488C133.618 15.984 133.214 16.376 132.694 16.664C132.182 16.944 131.594 17.084 130.93 17.084ZM130.93 15.8C131.298 15.8 131.626 15.72 131.914 15.56C132.202 15.4 132.426 15.168 132.586 14.864C132.754 14.56 132.838 14.204 132.838 13.796C132.838 13.38 132.754 13.024 132.586 12.728C132.426 12.424 132.202 12.192 131.914 12.032C131.626 11.872 131.302 11.792 130.942 11.792C130.574 11.792 130.246 11.872 129.958 12.032C129.678 12.192 129.454 12.424 129.286 12.728C129.118 13.024 129.034 13.38 129.034 13.796C129.034 14.204 129.118 14.56 129.286 14.864C129.454 15.168 129.678 15.4 129.958 15.56C130.246 15.72 130.57 15.8 130.93 15.8Z" fill="#2F050F"/>
</svg>
