<svg width="119" height="13" viewBox="0 0 119 13" fill="none" xmlns="http://www.w3.org/2000/svg">
<path d="M0.188 10V1.6H7.616V10H6.08V2.536L6.44 2.92H1.364L1.724 2.536V10H0.188ZM12.8046 10.084C12.0926 10.084 11.4686 9.944 10.9326 9.664C10.4046 9.376 9.99259 8.984 9.69659 8.488C9.40859 7.992 9.26459 7.428 9.26459 6.796C9.26459 6.156 9.40459 5.592 9.68459 5.104C9.97259 4.608 10.3646 4.22 10.8606 3.94C11.3646 3.66 11.9366 3.52 12.5766 3.52C13.2006 3.52 13.7566 3.656 14.2446 3.928C14.7326 4.2 15.1166 4.584 15.3966 5.08C15.6766 5.576 15.8166 6.16 15.8166 6.832C15.8166 6.896 15.8126 6.968 15.8046 7.048C15.8046 7.128 15.8006 7.204 15.7926 7.276H10.4526V6.28H15.0006L14.4126 6.592C14.4206 6.224 14.3446 5.9 14.1846 5.62C14.0246 5.34 13.8046 5.12 13.5246 4.96C13.2526 4.8 12.9366 4.72 12.5766 4.72C12.2086 4.72 11.8846 4.8 11.6046 4.96C11.3326 5.12 11.1166 5.344 10.9566 5.632C10.8046 5.912 10.7286 6.244 10.7286 6.628V6.868C10.7286 7.252 10.8166 7.592 10.9926 7.888C11.1686 8.184 11.4166 8.412 11.7366 8.572C12.0566 8.732 12.4246 8.812 12.8406 8.812C13.2006 8.812 13.5246 8.756 13.8126 8.644C14.1006 8.532 14.3566 8.356 14.5806 8.116L15.3846 9.04C15.0966 9.376 14.7326 9.636 14.2926 9.82C13.8606 9.996 13.3646 10.084 12.8046 10.084ZM21.0092 10.084C20.4892 10.084 20.0132 9.964 19.5812 9.724C19.1572 9.484 18.8172 9.124 18.5612 8.644C18.3132 8.156 18.1892 7.54 18.1892 6.796C18.1892 6.044 18.3092 5.428 18.5492 4.948C18.7972 4.468 19.1332 4.112 19.5572 3.88C19.9812 3.64 20.4652 3.52 21.0092 3.52C21.6412 3.52 22.1972 3.656 22.6772 3.928C23.1652 4.2 23.5492 4.58 23.8292 5.068C24.1172 5.556 24.2612 6.132 24.2612 6.796C24.2612 7.46 24.1172 8.04 23.8292 8.536C23.5492 9.024 23.1652 9.404 22.6772 9.676C22.1972 9.948 21.6412 10.084 21.0092 10.084ZM17.4572 12.328V3.592H18.8852V5.104L18.8372 6.808L18.9572 8.512V12.328H17.4572ZM20.8412 8.8C21.2012 8.8 21.5212 8.72 21.8012 8.56C22.0892 8.4 22.3172 8.168 22.4852 7.864C22.6532 7.56 22.7372 7.204 22.7372 6.796C22.7372 6.38 22.6532 6.024 22.4852 5.728C22.3172 5.424 22.0892 5.192 21.8012 5.032C21.5212 4.872 21.2012 4.792 20.8412 4.792C20.4812 4.792 20.1572 4.872 19.8692 5.032C19.5812 5.192 19.3532 5.424 19.1852 5.728C19.0172 6.024 18.9332 6.38 18.9332 6.796C18.9332 7.204 19.0172 7.56 19.1852 7.864C19.3532 8.168 19.5812 8.4 19.8692 8.56C20.1572 8.72 20.4812 8.8 20.8412 8.8ZM25.7541 10V3.592H28.8861C29.6621 3.592 30.2701 3.736 30.7101 4.024C31.1581 4.312 31.3821 4.72 31.3821 5.248C31.3821 5.768 31.1741 6.176 30.7581 6.472C30.3421 6.76 29.7901 6.904 29.1021 6.904L29.2821 6.532C30.0581 6.532 30.6341 6.676 31.0101 6.964C31.3941 7.244 31.5861 7.656 31.5861 8.2C31.5861 8.768 31.3741 9.212 30.9501 9.532C30.5261 9.844 29.8821 10 29.0181 10H25.7541ZM27.1821 8.908H28.8981C29.3061 8.908 29.6141 8.844 29.8221 8.716C30.0301 8.58 30.1341 8.376 30.1341 8.104C30.1341 7.816 30.0381 7.604 29.8461 7.468C29.6541 7.332 29.3541 7.264 28.9461 7.264H27.1821V8.908ZM27.1821 6.268H28.7541C29.1381 6.268 29.4261 6.2 29.6181 6.064C29.8181 5.92 29.9181 5.72 29.9181 5.464C29.9181 5.2 29.8181 5.004 29.6181 4.876C29.4261 4.748 29.1381 4.684 28.7541 4.684H27.1821V6.268ZM36.0398 10.084C35.3838 10.084 34.7998 9.944 34.2878 9.664C33.7758 9.376 33.3718 8.984 33.0758 8.488C32.7798 7.992 32.6318 7.428 32.6318 6.796C32.6318 6.156 32.7798 5.592 33.0758 5.104C33.3718 4.608 33.7758 4.22 34.2878 3.94C34.7998 3.66 35.3838 3.52 36.0398 3.52C36.7038 3.52 37.2918 3.66 37.8038 3.94C38.3238 4.22 38.7278 4.604 39.0158 5.092C39.3118 5.58 39.4598 6.148 39.4598 6.796C39.4598 7.428 39.3118 7.992 39.0158 8.488C38.7278 8.984 38.3238 9.376 37.8038 9.664C37.2918 9.944 36.7038 10.084 36.0398 10.084ZM36.0398 8.8C36.4078 8.8 36.7358 8.72 37.0238 8.56C37.3118 8.4 37.5358 8.168 37.6958 7.864C37.8638 7.56 37.9478 7.204 37.9478 6.796C37.9478 6.38 37.8638 6.024 37.6958 5.728C37.5358 5.424 37.3118 5.192 37.0238 5.032C36.7358 4.872 36.4118 4.792 36.0518 4.792C35.6838 4.792 35.3558 4.872 35.0678 5.032C34.7878 5.192 34.5638 5.424 34.3958 5.728C34.2278 6.024 34.1438 6.38 34.1438 6.796C34.1438 7.204 34.2278 7.56 34.3958 7.864C34.5638 8.168 34.7878 8.4 35.0678 8.56C35.3558 8.72 35.6798 8.8 36.0398 8.8ZM43.9296 10.084C43.2176 10.084 42.5936 9.944 42.0576 9.664C41.5296 9.376 41.1176 8.984 40.8216 8.488C40.5336 7.992 40.3896 7.428 40.3896 6.796C40.3896 6.156 40.5296 5.592 40.8096 5.104C41.0976 4.608 41.4896 4.22 41.9856 3.94C42.4896 3.66 43.0616 3.52 43.7016 3.52C44.3256 3.52 44.8816 3.656 45.3696 3.928C45.8576 4.2 46.2416 4.584 46.5216 5.08C46.8016 5.576 46.9416 6.16 46.9416 6.832C46.9416 6.896 46.9376 6.968 46.9296 7.048C46.9296 7.128 46.9256 7.204 46.9176 7.276H41.5776V6.28H46.1256L45.5376 6.592C45.5456 6.224 45.4696 5.9 45.3096 5.62C45.1496 5.34 44.9296 5.12 44.6496 4.96C44.3776 4.8 44.0616 4.72 43.7016 4.72C43.3336 4.72 43.0096 4.8 42.7296 4.96C42.4576 5.12 42.2416 5.344 42.0816 5.632C41.9296 5.912 41.8536 6.244 41.8536 6.628V6.868C41.8536 7.252 41.9416 7.592 42.1176 7.888C42.2936 8.184 42.5416 8.412 42.8616 8.572C43.1816 8.732 43.5496 8.812 43.9656 8.812C44.3256 8.812 44.6496 8.756 44.9376 8.644C45.2256 8.532 45.4816 8.356 45.7056 8.116L46.5096 9.04C46.2216 9.376 45.8576 9.636 45.4176 9.82C44.9856 9.996 44.4896 10.084 43.9296 10.084ZM54.9586 10.12C54.4306 10.12 53.9586 10.04 53.5426 9.88C53.1266 9.72 52.7666 9.476 52.4626 9.148C52.1666 8.812 51.9386 8.388 51.7786 7.876C51.6186 7.364 51.5386 6.756 51.5386 6.052C51.5386 5.54 51.5826 5.072 51.6706 4.648C51.7586 4.224 51.8906 3.844 52.0666 3.508C52.2426 3.164 52.4626 2.86 52.7266 2.596C52.9986 2.332 53.3146 2.112 53.6746 1.936C54.0346 1.76 54.4426 1.624 54.8986 1.528L57.8746 0.891999L58.0906 2.236L55.3906 2.788C55.2386 2.82 55.0546 2.868 54.8386 2.932C54.6306 2.988 54.4146 3.076 54.1906 3.196C53.9746 3.308 53.7706 3.472 53.5786 3.688C53.3946 3.896 53.2426 4.168 53.1226 4.504C53.0106 4.832 52.9546 5.244 52.9546 5.74C52.9546 5.892 52.9586 6.008 52.9666 6.088C52.9826 6.16 52.9946 6.24 53.0026 6.328C53.0186 6.408 53.0266 6.528 53.0266 6.688L52.4626 6.1C52.6226 5.692 52.8426 5.344 53.1226 5.056C53.4106 4.76 53.7426 4.536 54.1186 4.384C54.5026 4.224 54.9186 4.144 55.3666 4.144C55.9666 4.144 56.4986 4.268 56.9626 4.516C57.4266 4.764 57.7906 5.112 58.0546 5.56C58.3186 6.008 58.4506 6.516 58.4506 7.084C58.4506 7.676 58.3066 8.2 58.0186 8.656C57.7306 9.112 57.3226 9.472 56.7946 9.736C56.2746 9.992 55.6626 10.12 54.9586 10.12ZM55.0786 8.908C55.4386 8.908 55.7546 8.832 56.0266 8.68C56.3066 8.52 56.5226 8.304 56.6746 8.032C56.8346 7.76 56.9146 7.456 56.9146 7.12C56.9146 6.784 56.8346 6.492 56.6746 6.244C56.5226 5.988 56.3066 5.784 56.0266 5.632C55.7546 5.48 55.4306 5.404 55.0546 5.404C54.6946 5.404 54.3706 5.476 54.0826 5.62C53.8026 5.764 53.5826 5.964 53.4226 6.22C53.2706 6.468 53.1946 6.756 53.1946 7.084C53.1946 7.42 53.2746 7.728 53.4346 8.008C53.5946 8.288 53.8146 8.508 54.0946 8.668C54.3826 8.828 54.7106 8.908 55.0786 8.908ZM62.8905 10.084C62.1785 10.084 61.5545 9.944 61.0185 9.664C60.4905 9.376 60.0785 8.984 59.7825 8.488C59.4945 7.992 59.3505 7.428 59.3505 6.796C59.3505 6.156 59.4905 5.592 59.7705 5.104C60.0585 4.608 60.4505 4.22 60.9465 3.94C61.4505 3.66 62.0225 3.52 62.6625 3.52C63.2865 3.52 63.8425 3.656 64.3305 3.928C64.8185 4.2 65.2025 4.584 65.4825 5.08C65.7625 5.576 65.9025 6.16 65.9025 6.832C65.9025 6.896 65.8985 6.968 65.8905 7.048C65.8905 7.128 65.8865 7.204 65.8785 7.276H60.5385V6.28H65.0865L64.4985 6.592C64.5065 6.224 64.4305 5.9 64.2705 5.62C64.1105 5.34 63.8905 5.12 63.6105 4.96C63.3385 4.8 63.0225 4.72 62.6625 4.72C62.2945 4.72 61.9705 4.8 61.6905 4.96C61.4185 5.12 61.2025 5.344 61.0425 5.632C60.8905 5.912 60.8145 6.244 60.8145 6.628V6.868C60.8145 7.252 60.9025 7.592 61.0785 7.888C61.2545 8.184 61.5025 8.412 61.8225 8.572C62.1425 8.732 62.5105 8.812 62.9265 8.812C63.2865 8.812 63.6105 8.756 63.8985 8.644C64.1865 8.532 64.4425 8.356 64.6665 8.116L65.4705 9.04C65.1825 9.376 64.8185 9.636 64.3785 9.82C63.9465 9.996 63.4505 10.084 62.8905 10.084ZM70.4592 10.084C69.7872 10.084 69.1872 9.944 68.6592 9.664C68.1392 9.376 67.7312 8.984 67.4352 8.488C67.1392 7.992 66.9912 7.428 66.9912 6.796C66.9912 6.156 67.1392 5.592 67.4352 5.104C67.7312 4.608 68.1392 4.22 68.6592 3.94C69.1872 3.66 69.7872 3.52 70.4592 3.52C71.0832 3.52 71.6312 3.648 72.1032 3.904C72.5832 4.152 72.9472 4.52 73.1952 5.008L72.0432 5.68C71.8512 5.376 71.6152 5.152 71.3352 5.008C71.0632 4.864 70.7672 4.792 70.4472 4.792C70.0792 4.792 69.7472 4.872 69.4512 5.032C69.1552 5.192 68.9232 5.424 68.7552 5.728C68.5872 6.024 68.5032 6.38 68.5032 6.796C68.5032 7.212 68.5872 7.572 68.7552 7.876C68.9232 8.172 69.1552 8.4 69.4512 8.56C69.7472 8.72 70.0792 8.8 70.4472 8.8C70.7672 8.8 71.0632 8.728 71.3352 8.584C71.6152 8.44 71.8512 8.216 72.0432 7.912L73.1952 8.584C72.9472 9.064 72.5832 9.436 72.1032 9.7C71.6312 9.956 71.0832 10.084 70.4592 10.084ZM74.5158 10V3.592H80.6598V10H79.1718V4.516L79.5198 4.864H75.6678L76.0158 4.516V10H74.5158ZM81.7478 9.988L81.8198 8.728C81.8758 8.736 81.9278 8.744 81.9758 8.752C82.0238 8.76 82.0678 8.764 82.1078 8.764C82.3558 8.764 82.5478 8.688 82.6838 8.536C82.8198 8.384 82.9198 8.18 82.9838 7.924C83.0558 7.66 83.1038 7.368 83.1278 7.048C83.1598 6.72 83.1838 6.392 83.1998 6.064L83.3078 3.592H88.4918V10H86.9918V4.456L87.3398 4.864H84.2918L84.6158 4.444L84.5318 6.136C84.5078 6.704 84.4598 7.232 84.3878 7.72C84.3238 8.2 84.2198 8.62 84.0758 8.98C83.9398 9.34 83.7478 9.62 83.4998 9.82C83.2598 10.02 82.9518 10.12 82.5758 10.12C82.4558 10.12 82.3238 10.108 82.1798 10.084C82.0438 10.06 81.8998 10.028 81.7478 9.988ZM94.3999 10V8.704L94.3159 8.428V6.16C94.3159 5.72 94.1839 5.38 93.9199 5.14C93.6559 4.892 93.2559 4.768 92.7199 4.768C92.3599 4.768 92.0039 4.824 91.6519 4.936C91.3079 5.048 91.0159 5.204 90.7759 5.404L90.1879 4.312C90.5319 4.048 90.9399 3.852 91.4119 3.724C91.8919 3.588 92.3879 3.52 92.8999 3.52C93.8279 3.52 94.5439 3.744 95.0479 4.192C95.5599 4.632 95.8159 5.316 95.8159 6.244V10H94.3999ZM92.3839 10.084C91.9039 10.084 91.4839 10.004 91.1239 9.844C90.7639 9.676 90.4839 9.448 90.2839 9.16C90.0919 8.864 89.9959 8.532 89.9959 8.164C89.9959 7.804 90.0799 7.48 90.2479 7.192C90.4239 6.904 90.7079 6.676 91.0999 6.508C91.4919 6.34 92.0119 6.256 92.6599 6.256H94.5199V7.252H92.7679C92.2559 7.252 91.9119 7.336 91.7359 7.504C91.5599 7.664 91.4719 7.864 91.4719 8.104C91.4719 8.376 91.5799 8.592 91.7959 8.752C92.0119 8.912 92.3119 8.992 92.6959 8.992C93.0639 8.992 93.3919 8.908 93.6799 8.74C93.9759 8.572 94.1879 8.324 94.3159 7.996L94.5679 8.896C94.4239 9.272 94.1639 9.564 93.7879 9.772C93.4199 9.98 92.9519 10.084 92.3839 10.084ZM99.0041 10V4.504L99.3521 4.864H96.7481V3.592H102.748V4.864H100.156L100.504 4.504V10H99.0041ZM103.836 10V3.592H105.336V6.196H108.564V3.592H110.064V10H108.564V7.468H105.336V10H103.836ZM114.93 10.084C114.274 10.084 113.69 9.944 113.178 9.664C112.666 9.376 112.262 8.984 111.966 8.488C111.67 7.992 111.522 7.428 111.522 6.796C111.522 6.156 111.67 5.592 111.966 5.104C112.262 4.608 112.666 4.22 113.178 3.94C113.69 3.66 114.274 3.52 114.93 3.52C115.594 3.52 116.182 3.66 116.694 3.94C117.214 4.22 117.618 4.604 117.906 5.092C118.202 5.58 118.35 6.148 118.35 6.796C118.35 7.428 118.202 7.992 117.906 8.488C117.618 8.984 117.214 9.376 116.694 9.664C116.182 9.944 115.594 10.084 114.93 10.084ZM114.93 8.8C115.298 8.8 115.626 8.72 115.914 8.56C116.202 8.4 116.426 8.168 116.586 7.864C116.754 7.56 116.838 7.204 116.838 6.796C116.838 6.38 116.754 6.024 116.586 5.728C116.426 5.424 116.202 5.192 115.914 5.032C115.626 4.872 115.302 4.792 114.942 4.792C114.574 4.792 114.246 4.872 113.958 5.032C113.678 5.192 113.454 5.424 113.286 5.728C113.118 6.024 113.034 6.38 113.034 6.796C113.034 7.204 113.118 7.56 113.286 7.864C113.454 8.168 113.678 8.4 113.958 8.56C114.246 8.72 114.57 8.8 114.93 8.8Z" fill="#2F050F"/>
</svg>
